<?xml version="1.0" encoding="utf-8"?>
<!-- Generator: Adobe Illustrator 28.3.0, SVG Export Plug-In . SVG Version: 6.00 Build 0)  -->
<svg version="1.1" id="Capa_1" xmlns="http://www.w3.org/2000/svg" xmlns:xlink="http://www.w3.org/1999/xlink" x="0px" y="0px"
	 viewBox="0 0 512 512" style="enable-background:new 0 0 512 512;" xml:space="preserve">
<style type="text/css">
	.st0{fill:url(#SVGID_1_);}
	.st1{fill:url(#SVGID_00000023253947626083035740000002179184063265028786_);}
</style>
<g id="Fire_2_">
	<g>
		<g>
			
				<linearGradient id="SVGID_1_" gradientUnits="userSpaceOnUse" x1="256" y1="1.0551" x2="256" y2="513.0489" gradientTransform="matrix(1 0 0 -1 0 513.0551)">
				<stop  offset="0" style="stop-color:#FD5900"/>
				<stop  offset="1" style="stop-color:#FFDE00"/>
			</linearGradient>
			<path class="st0" d="M265.6,3.5c-4.5-3.7-10.7-4.5-16-2.1C244.4,3.9,241,9.2,241,15c0,73.3-47.5,126.6-93.5,176.2
				C105,237,61,284.5,61,347c0,100.2,76.6,165,195,165c107.5,0,195-87.5,195-195C451,161.8,273.2,9.8,265.6,3.5L265.6,3.5z"/>
		</g>
	</g>
	<g>
		<g>
			
				<linearGradient id="SVGID_00000151523936931926261190000004922212713333409982_" gradientUnits="userSpaceOnUse" x1="256" y1="1.0551" x2="256" y2="513.0551" gradientTransform="matrix(1 0 0 -1 0 513.0551)">
				<stop  offset="0" style="stop-color:#FFE59A"/>
				<stop  offset="1" style="stop-color:#FFFFD5"/>
			</linearGradient>
			<path style="fill:url(#SVGID_00000151523936931926261190000004922212713333409982_);" d="M347,354.6l-78-135.1
				c-5.3-9.3-20.6-9.3-26,0l-78,135.1c-9.2,15.9-14,34-14,52.4c0,57.9,47.1,105,105,105s105-47.1,105-105
				C361,388.6,356.1,370.4,347,354.6z"/>
		</g>
	</g>
</g>
</svg>
