<?xml version="1.0" encoding="UTF-8"?>
<svg id="Capa_1" data-name="Capa 1" xmlns="http://www.w3.org/2000/svg" xmlns:xlink="http://www.w3.org/1999/xlink" viewBox="0 0 390 511.99">
  <defs>
    <style>
      .cls-1 {
        fill: url(#linear-gradient);
      }

      .cls-1, .cls-2 {
        stroke-width: 0px;
      }

      .cls-2 {
        fill: url(#linear-gradient-2);
      }
    </style>
    <linearGradient id="linear-gradient" x1="195" y1="1.05" x2="195" y2="513.04" gradientTransform="translate(0 513.04) scale(1 -1)" gradientUnits="userSpaceOnUse">
      <stop offset="0" stop-color="gray"/>
      <stop offset="1" stop-color="#cfcfcf"/>
    </linearGradient>
    <linearGradient id="linear-gradient-2" x1="195" y1="1.05" x2="195" y2="513.05" gradientTransform="translate(0 513.04) scale(1 -1)" gradientUnits="userSpaceOnUse">
      <stop offset="0" stop-color="#e5e5e5"/>
      <stop offset="1" stop-color="#fafafa"/>
    </linearGradient>
  </defs>
  <g id="Fire">
    <path class="cls-1" d="M204.61,3.47c-4.48-3.72-10.72-4.51-15.97-2.05-5.27,2.46-8.64,7.76-8.64,13.58,0,73.3-47.55,126.58-93.52,176.17C43.97,237.03,0,284.46,0,346.99c0,100.24,76.55,165,195,165,107.52,0,195-87.48,195-195C390,161.75,212.17,9.78,204.61,3.47h0Z"/>
    <path class="cls-2" d="M285.97,354.55l-77.99-135.06c-5.33-9.29-20.62-9.29-25.96,0l-77.99,135.06c-9.17,15.86-14.03,34-14.03,52.44,0,57.89,47.11,105,105,105s105-47.11,105-105c0-18.44-4.86-36.58-14.03-52.44Z"/>
  </g>
</svg>